<?xml version="1.0" encoding="UTF-8"?>
<svg version="1.1" xmlns="http://www.w3.org/2000/svg" width="128" height="128">
<path d="M0 0 C2.81870408 1.0972733 5.34556085 2.57474481 7.9375 4.125 C8.69530762 4.56223389 9.45311523 4.99946777 10.23388672 5.44995117 C11.9081008 6.4189599 13.57816031 7.39517204 15.24462891 8.37744141 C18.23090538 10.13597352 21.22966758 11.87184647 24.23046875 13.60546875 C30.16894569 17.04465052 36.10197226 20.49178529 42 24 C42.80920898 24.48130371 43.61841797 24.96260742 44.45214844 25.45849609 C45.53931152 26.11906006 45.53931152 26.11906006 46.6484375 26.79296875 C47.27669434 27.17348389 47.90495117 27.55399902 48.55224609 27.94604492 C50 29 50 29 51 31 C51.11661056 32.88266053 51.16968969 34.76939157 51.19287109 36.65551758 C51.20893402 37.84047318 51.22499695 39.02542877 51.24154663 40.24629211 C51.28589963 45.66786232 51.3275009 51.08928676 51.35009766 56.51098633 C51.36343377 59.37361633 51.39127879 62.23553291 51.43212891 65.09790039 C51.49092365 69.21773322 51.5087568 73.33680078 51.5234375 77.45703125 C51.54610687 78.73737747 51.56877625 80.01772369 51.59213257 81.33686829 C51.57104559 90.17413646 51.57104559 90.17413646 48.84326172 94.11914062 C45.92157851 96.05187697 43.0435768 97.92701126 39.984375 99.63671875 C39.41553589 99.9581636 38.84669678 100.27960846 38.26062012 100.61079407 C36.42808932 101.64432685 34.58943904 102.66632102 32.75 103.6875 C30.21712285 105.10518067 27.68660944 106.5270504 25.15625 107.94921875 C24.53534485 108.29709442 23.9144397 108.64497009 23.27471924 109.00338745 C19.68795041 111.0205502 16.15213332 113.09894276 12.65625 115.26953125 C11.51591309 115.97299683 11.51591309 115.97299683 10.35253906 116.69067383 C9.00181813 117.531816 7.65915609 118.38611905 6.32714844 119.2565918 C1.94474572 121.96222345 -1.95934734 123.18039188 -7 122 C-10.87591311 120.28731667 -14.40802839 118.11372677 -18 115.875 C-20.11672047 114.59427988 -22.23392316 113.31435648 -24.3515625 112.03515625 C-25.43856445 111.3714502 -26.52556641 110.70774414 -27.64550781 110.02392578 C-31.01757058 107.98939883 -34.41807587 106.01508225 -37.8359375 104.05859375 C-38.93164062 103.43033691 -40.02734375 102.80208008 -41.15625 102.15478516 C-43.27152698 100.9440843 -45.388664 99.73662636 -47.5078125 98.53271484 C-48.46171875 97.98180176 -49.415625 97.43088867 -50.3984375 96.86328125 C-51.66179932 96.14072144 -51.66179932 96.14072144 -52.95068359 95.40356445 C-55 94 -55 94 -57 91 C-57.27415466 88.39505005 -57.27415466 88.39505005 -57.30639648 85.23095703 C-57.32238388 84.04607697 -57.33837128 82.8611969 -57.35484314 81.64041138 C-57.36020584 80.35915375 -57.36556854 79.07789612 -57.37109375 77.7578125 C-57.38012222 76.44215302 -57.3891507 75.12649353 -57.39845276 73.77096558 C-57.41493887 70.98514352 -57.42264207 68.19944157 -57.42553711 65.41357422 C-57.43091923 61.84999992 -57.46859089 58.28756016 -57.51428127 54.72430611 C-57.55124422 51.31881331 -57.55256753 47.91349911 -57.55859375 44.5078125 C-57.57812607 43.23060333 -57.59765839 41.95339417 -57.61778259 40.63748169 C-57.57263477 31.78888242 -57.57263477 31.78888242 -54.66162109 27.77856445 C-51.57337235 25.71491631 -48.46652681 23.80115461 -45.1875 22.0625 C-43.77746304 21.29252666 -42.36869482 20.52022713 -40.9609375 19.74609375 C-39.79449707 19.10583252 -39.79449707 19.10583252 -38.60449219 18.45263672 C-33.46383099 15.58547004 -28.39252314 12.59783951 -23.3125 9.625 C-22.27311279 9.01793213 -21.23372559 8.41086426 -20.1628418 7.78540039 C-14.7331735 4.62778228 -14.7331735 4.62778228 -9.38378906 1.33789062 C-5.99941981 -0.56157102 -3.83873211 -0.4640673 0 0 Z " fill="#040405" transform="translate(67,3)"/>
<path d="M0 0 C3.85886661 1.54354665 7.18693035 3.12892911 10.78125 5.15234375 C12.41513672 6.06983398 12.41513672 6.06983398 14.08203125 7.00585938 C15.20996094 7.64330078 16.33789062 8.28074219 17.5 8.9375 C18.62792969 9.57107422 19.75585938 10.20464844 20.91796875 10.85742188 C23.95005301 12.56364207 26.98090113 14.27090381 30 16 C30.93416748 16.3717334 31.86833496 16.7434668 32.83081055 17.12646484 C35 19 35 19 35.42434692 20.84687805 C35.58224162 23.33450139 35.56123783 25.77010576 35.48828125 28.26171875 C35.48120651 29.16751175 35.47413177 30.07330475 35.46684265 31.00654602 C35.43884228 33.90103583 35.37609441 36.7935945 35.3125 39.6875 C35.28742438 41.64906061 35.26460993 43.61065154 35.24414062 45.57226562 C35.18899716 50.38225505 35.10268642 55.19080009 35 60 C26.7538497 55.97601077 18.71450826 51.67866704 10.75 47.125 C5.42875 44.093125 5.42875 44.093125 0 41 C0 27.47 0 13.94 0 0 Z " fill="#000086" transform="translate(23,48)"/>
<path d="M0 0 C3.80955001 34.50573183 3.80955001 34.50573183 -2.21044922 43.18798828 C-7.76876343 47.94276045 -14.13901885 50.59251003 -21.01513672 52.91943359 C-24.70067647 54.25365566 -27.92830815 56.05922943 -31.27758789 58.07543945 C-33 59 -33 59 -35 59 C-35 45.8 -35 32.6 -35 19 C-25.25 13.4375 -25.25 13.4375 -22.08959961 11.63549805 C-16.04996534 8.18676632 -10.04369 4.69148756 -4.08203125 1.109375 C-2 0 -2 0 0 0 Z " fill="#FD0087" transform="translate(105,48)"/>
<path d="M0 0 C2.03572888 1.01043098 4.03371082 2.09860161 6 3.23828125 C7.7015625 4.22151367 7.7015625 4.22151367 9.4375 5.22460938 C10.02273437 5.5677417 10.60796875 5.91087402 11.2109375 6.2644043 C12.98994974 7.3066122 14.77555159 8.33670584 16.5625 9.36523438 C21.65539012 12.32547676 26.46698999 15.21849889 31 19 C24.05601121 23.73513902 16.96119807 28.1839381 9.75 32.5 C8.6878125 33.15742187 7.625625 33.81484375 6.53125 34.4921875 C4.99210937 35.40871094 4.99210937 35.40871094 3.421875 36.34375 C2.49987305 36.90255859 1.57787109 37.46136719 0.62792969 38.03710938 C-2 39 -2 39 -4.44580078 38.37890625 C-5.28868652 37.92386719 -6.13157227 37.46882813 -7 37 C-7.9895166 36.48115234 -8.9790332 35.96230469 -9.99853516 35.42773438 C-11.08440918 34.82251953 -12.1702832 34.21730469 -13.2890625 33.59375 C-13.87416595 33.26838257 -14.45926941 32.94301514 -15.06210327 32.60778809 C-16.29153359 31.92336 -17.52016987 31.23750384 -18.74804688 30.55029297 C-20.624486 29.50028762 -22.50341935 28.4548633 -24.3828125 27.41015625 C-33.53972362 22.30685092 -33.53972362 22.30685092 -37 20 C-35.59273044 15.77819132 -32.60607003 14.85090764 -28.875 12.875 C-24.44051395 10.4753494 -20.04160913 8.06885319 -15.77734375 5.375 C-15.11041504 4.95621582 -14.44348633 4.53743164 -13.75634766 4.10595703 C-12.48446956 3.30053008 -11.21943708 2.48416387 -9.96240234 1.65576172 C-6.10285012 -0.76518133 -4.32739966 -1.29367721 0 0 Z " fill="#00FB86" transform="translate(67,18)"/>
</svg>
